<?xml version="1.0" encoding="UTF-8"?>
<svg version="1.1" xmlns="http://www.w3.org/2000/svg" width="1920" height="550">
<path d="M0 0 C5.66599055 4.61243154 10.30361798 9.36434158 15 15 C15.33 6.42 15.66 -2.16 16 -11 C37.45 -11 58.9 -11 81 -11 C81.06782941 17.91237279 81.1230472 46.82468073 81.15543652 75.737113 C81.15849585 78.41450444 81.16161982 81.0918958 81.16479492 83.76928711 C81.16558185 84.43472554 81.16636878 85.10016397 81.16717956 85.78576721 C81.1793886 95.86200272 81.200429 105.93819535 81.22631836 116.0144043 C81.25630427 127.72197445 81.27559479 139.42950614 81.28226548 151.13711363 C81.28616219 157.33102501 81.29526289 163.52482635 81.31719017 169.71870232 C81.33770072 175.56025749 81.34380459 181.40165831 81.33932304 187.24324608 C81.34014177 189.37597749 81.34601989 191.5087146 81.35761642 193.64141464 C81.43791691 209.18460039 80.5125971 224.24328105 75.375 239.0625 C74.99541138 240.16682373 74.99541138 240.16682373 74.6081543 241.29345703 C69.68338692 254.94138846 62.32909143 265.90700209 52 276 C51.22140625 276.79921875 50.4428125 277.5984375 49.640625 278.421875 C29.548329 297.9747805 0.44332145 303.60084902 -26.66918945 303.28344727 C-55.39234024 302.52914789 -82.63764729 295.8793668 -105 277 C-106.03125 276.21625 -107.0625 275.4325 -108.125 274.625 C-121.60705069 262.31530155 -130.91617123 244.16352241 -133 226 C-133 224.02 -133 222.04 -133 220 C-111.88 220 -90.76 220 -69 220 C-63 231 -63 231 -61 235 C-59.20188258 236.13678741 -59.20188258 236.13678741 -57 237 C-56.10925781 237.474375 -55.21851563 237.94875 -54.30078125 238.4375 C-40.64937642 245.57548945 -25.93611076 247.58789811 -10.875 243.375 C-5.45565091 241.43221448 -1.17139436 238.96139281 3 235 C3.55300781 234.47535156 4.10601563 233.95070313 4.67578125 233.41015625 C15.89773199 221.57559281 15.29387594 204.52567304 15.125 189.3125 C15.11494496 187.72461505 15.1058236 186.1367239 15.09765625 184.54882812 C15.07585443 180.69906275 15.04146559 176.84960173 15 173 C14.40469482 173.67329346 13.80938965 174.34658691 13.19604492 175.0402832 C12.40302979 175.93062256 11.61001465 176.82096191 10.79296875 177.73828125 C10.01203857 178.61782471 9.2311084 179.49736816 8.42651367 180.40356445 C-5.60369653 195.41627051 -24.85291528 202.18196485 -45.0234375 203.03125 C-70.09171893 202.83424975 -92.22636576 195.73487387 -110.23828125 177.828125 C-111.14964844 176.89484375 -112.06101562 175.9615625 -113 175 C-113.67417969 174.33484375 -114.34835937 173.6696875 -115.04296875 172.984375 C-136.40716709 150.49574517 -141.71061128 117.22284554 -141.25 87.52734375 C-140.38050356 57.78621799 -130.18285582 30.28502393 -109 9 C-80.32020319 -18.0165484 -32.60975173 -23.092073 0 0 Z M-65 60 C-74.05371364 71.39910464 -75.99465246 86.94514836 -74.7265625 101.0390625 C-72.83657388 115.98067068 -66.87676892 127.48347781 -55.39453125 137.17578125 C-45.90100258 144.40820848 -35.04309911 146.66744205 -23.28125 145.69140625 C-10.1970796 143.36115024 0.33205598 136.8869621 8 126 C16.97969024 110.45451474 18.41464538 92.79145191 13.83422852 75.59472656 C10.23012485 63.38595808 2.48288013 53.88070221 -8.5625 47.5625 C-28.36176566 37.69021422 -50.81008869 43.35619426 -65 60 Z " fill="#000000" transform="translate(659,232)"/>
<path d="M0 0 C5.66599055 4.61243154 10.30361798 9.36434158 15 15 C15.33 6.42 15.66 -2.16 16 -11 C37.45 -11 58.9 -11 81 -11 C81 58.3 81 127.6 81 199 C59.55 199 38.1 199 16 199 C15.67 190.42 15.34 181.84 15 173 C12.69 175.64 10.38 178.28 8 181 C-6.86134304 196.47944592 -26.08796351 202.08907553 -47 203 C-71.86554857 203.50136697 -93.61431134 193.88299656 -111.5625 176.9375 C-121.88062273 166.25139857 -128.77151227 153.82385976 -134 140 C-134.39960937 138.94554687 -134.79921875 137.89109375 -135.2109375 136.8046875 C-145.67482887 106.04242039 -144.07989742 68.12890309 -130.14941406 38.70263672 C-119.7397428 17.59055321 -103.26965085 -0.56065434 -80.78222656 -8.81396484 C-53.95130264 -17.78256694 -23.6717153 -16.76274576 0 0 Z M-65 60 C-74.05371364 71.39910464 -75.99465246 86.94514836 -74.7265625 101.0390625 C-72.83657388 115.98067068 -66.87676892 127.48347781 -55.39453125 137.17578125 C-45.90100258 144.40820848 -35.04309911 146.66744205 -23.28125 145.69140625 C-10.1970796 143.36115024 0.33205598 136.8869621 8 126 C16.97969024 110.45451474 18.41464538 92.79145191 13.83422852 75.59472656 C10.23012485 63.38595808 2.48288013 53.88070221 -8.5625 47.5625 C-28.36176566 37.69021422 -50.81008869 43.35619426 -65 60 Z " fill="#000000" transform="translate(913,232)"/>
<path d="M0 0 C17.3119872 16.3650482 28.50234032 39.65290933 30.16015625 63.5078125 C30.28082558 68.06962386 30.30427272 72.62822642 30.29052734 77.19116211 C30.28512528 79.3325901 30.29051991 81.47381242 30.296875 83.61523438 C30.29621491 84.98177129 30.29493518 86.34830809 30.29296875 87.71484375 C30.29184082 88.9469458 30.29071289 90.17904785 30.28955078 91.44848633 C30.16015625 94.5078125 30.16015625 94.5078125 29.16015625 97.5078125 C-18.68984375 97.5078125 -66.53984375 97.5078125 -115.83984375 97.5078125 C-111.11227848 117.01448888 -111.11227848 117.01448888 -97.83984375 130.5078125 C-87.48491828 136.10322528 -76.07522318 137.13528034 -64.55859375 134.859375 C-58.27156198 132.79313141 -53.14649791 129.55949965 -48.83984375 124.5078125 C-48.60001266 123.86938416 -48.36018158 123.23095581 -48.11308289 122.57318115 C-46.99052093 119.93291153 -46.01096888 118.40866898 -43.83984375 116.5078125 C-38.66661943 115.33551337 -33.52412175 115.57703551 -28.2578125 115.7265625 C-26.71799156 115.74149258 -25.17813249 115.752876 -23.63825989 115.76086426 C-19.59467749 115.79134034 -15.55341204 115.86985681 -11.51074219 115.95849609 C-7.38182929 116.04048984 -3.25254008 116.07690414 0.87695312 116.1171875 C8.97241485 116.20286197 17.06599697 116.33930657 25.16015625 116.5078125 C24.20205445 125.12904974 24.20205445 125.12904974 22.84765625 128.33203125 C22.58170654 128.96149658 22.31575684 129.59096191 22.04174805 130.23950195 C21.60536011 131.20762817 21.60536011 131.20762817 21.16015625 132.1953125 C20.85182861 132.88520264 20.54350098 133.57509277 20.22583008 134.28588867 C9.6318982 157.12239857 -9.7144772 174.18555271 -32.98535156 183.35302734 C-62.91115578 194.1238265 -96.60708503 192.85421524 -125.51953125 179.64453125 C-148.99592372 168.34696569 -166.00156803 147.76046194 -174.83984375 123.5078125 C-185.18633841 91.03887862 -183.55781205 54.90770751 -168.13183594 24.36206055 C-156.55862699 2.575468 -136.7804343 -13.54131369 -113.3659668 -21.08520508 C-74.22886759 -32.90790891 -31.30171983 -27.46973487 0 0 Z M-106.15234375 38.6328125 C-111.47603231 45.00396108 -114.83984375 52.18287646 -114.83984375 60.5078125 C-88.76984375 60.5078125 -62.69984375 60.5078125 -35.83984375 60.5078125 C-38.08982081 48.13293866 -40.78183047 39.6165932 -51.08984375 32.3203125 C-68.62091324 21.30572607 -91.68002154 23.75623548 -106.15234375 38.6328125 Z " fill="#000000" transform="translate(1886.83984375,244.4921875)"/>
<path d="M0 0 C20.19696916 19.21462631 29.88104684 46.72137794 30.85546875 74.109375 C31.59069554 103.78750812 23.99488175 131.72120534 3.6953125 153.97265625 C2.99921875 154.74996094 2.303125 155.52726563 1.5859375 156.328125 C-12.64039912 171.41115707 -31.47228563 180.05949325 -51.3046875 184.97265625 C-52.24441406 185.20726562 -53.18414063 185.441875 -54.15234375 185.68359375 C-83.81085831 192.00952112 -117.46635151 186.96168336 -143.08984375 170.62109375 C-167.55841672 154.24190263 -180.679648 130.78728364 -187.0546875 102.6640625 C-192.3347453 72.70706789 -187.24093756 40.30617627 -170.24609375 14.89453125 C-152.84439689 -9.30034139 -127.81768007 -23.20323334 -98.8046875 -28.33984375 C-62.17664302 -32.72845737 -27.85088276 -24.49933585 0 0 Z M-110.27734375 41.109375 C-121.11877748 54.29863514 -123.52229654 70.71767175 -121.99609375 87.33203125 C-120.59070487 98.72438711 -117.98283898 108.25841686 -110.3046875 116.97265625 C-109.78003906 117.59011719 -109.25539063 118.20757812 -108.71484375 118.84375 C-101.85103282 126.35356666 -92.55542484 130.40871001 -82.4921875 131.19140625 C-69.00228728 131.60436238 -58.30766632 126.92060495 -48.4921875 117.72265625 C-38.4681736 107.15059221 -35.7726406 93.69555166 -35.9296875 79.53515625 C-35.91808594 78.49294922 -35.90648437 77.45074219 -35.89453125 76.37695312 C-35.94709151 62.24700369 -39.73155196 49.66646975 -49.4296875 39.16015625 C-59.51523119 29.62255381 -70.41068037 27.47321567 -83.7421875 27.69921875 C-94.6354518 28.15086887 -102.98789483 33.21367489 -110.27734375 41.109375 Z " fill="#000000" transform="translate(1401.3046875,247.02734375)"/>
<path d="M0 0 C1.07765625 0.32871094 2.1553125 0.65742188 3.265625 0.99609375 C21.95913296 7.39706982 36.24525122 21.18021623 44.87890625 38.76171875 C48.9194696 47.33707521 51.50203977 55.60894165 53 65 C53.17313217 65.94488785 53.34626434 66.8897757 53.52464294 67.86329651 C54.34022874 73.66222436 54.13025103 79.52833015 54.11352539 85.37084961 C54.11324298 86.72161863 54.11340231 88.07238781 54.1139679 89.42315674 C54.11425377 93.07346584 54.10839106 96.7237418 54.10139394 100.37404323 C54.09512536 104.19504422 54.09455383 108.01604605 54.09336853 111.83705139 C54.09026553 119.06522449 54.08206607 126.29338239 54.07201904 133.52154881 C54.05873122 143.29423289 54.05334966 153.06692116 54.04751682 162.83961201 C54.03812547 178.22641938 54.01819966 193.61319469 54 209 C32.55 209 11.1 209 -11 209 C-11.03867188 195.79935547 -11.03867188 195.79935547 -11.078125 182.33203125 C-11.10651153 176.02841518 -11.13738199 169.72484938 -11.1718235 163.42126751 C-11.21604635 155.26725402 -11.25451796 147.11335036 -11.27099609 138.95922852 C-11.28406708 132.50044407 -11.31116908 126.04189096 -11.35461307 119.58323687 C-11.37710666 116.16835184 -11.39291805 112.75375084 -11.39188385 109.33878517 C-11.39426532 105.51172329 -11.42144244 101.68555006 -11.45410156 97.85864258 C-11.4490712 96.74588959 -11.44404083 95.6331366 -11.43885803 94.48666382 C-11.58859804 83.06496396 -14.33671049 71.76311347 -22 63 C-29.69054603 55.60779412 -39.03055214 52.39374525 -49.5703125 51.91015625 C-60.31086508 52.19151469 -69.7720144 54.92585545 -78 62 C-87.45182499 72.63576966 -89.13508921 85.22271468 -89.20532227 98.88037109 C-89.21522186 100.07118286 -89.22512146 101.26199463 -89.23532104 102.4888916 C-89.26142603 105.74048623 -89.28332198 108.99207605 -89.30332303 112.2437129 C-89.32526003 115.64700875 -89.35261081 119.05026107 -89.37937927 122.45352173 C-89.42920223 128.89192089 -89.47417942 135.33034435 -89.51740164 141.76879084 C-89.57171857 149.82115355 -89.63252871 157.87346556 -89.69335938 165.92578125 C-89.80179757 180.28381514 -89.90043805 194.64189572 -90 209 C-111.45 209 -132.9 209 -155 209 C-155 139.7 -155 70.4 -155 -1 C-133.55 -1 -112.1 -1 -90 -1 C-89.505 10.88 -89.505 10.88 -89 23 C-87.618125 21.515 -86.23625 20.03 -84.8125 18.5 C-63.41029722 -2.84182986 -28.51165587 -9.12225259 0 0 Z " fill="#000000" transform="translate(1619,222)"/>
<path d="M0 0 C22.11 0 44.22 0 67 0 C67 62.7 67 125.4 67 190 C46.27545988 195.7568167 25.79921031 200.60306953 4.5625 203.8125 C3.8706662 203.91763916 3.1788324 204.02277832 2.46603394 204.13110352 C-48.31206737 211.77516757 -105.49964628 209.37673768 -148.6484375 178.44140625 C-179.54391035 155.39992568 -198.78848523 120.9116591 -205 83 C-205.12890625 82.25234375 -205.2578125 81.5046875 -205.390625 80.734375 C-206.18680671 75.41252882 -206 70.48521331 -206 65 C-184.88 65 -163.76 65 -142 65 C-139.36 71.93 -136.72 78.86 -134 86 C-128.2347621 97.82612903 -122.5567821 108.09289514 -114 118 C-113.36835938 118.74378906 -112.73671875 119.48757813 -112.0859375 120.25390625 C-98.19357314 135.35815772 -76.84491682 143.44377907 -56.72265625 144.921875 C-28.04411666 145.74478862 -1.54532375 137.77266187 24 125 C24.495 89.36 24.495 89.36 25 53 C16.75 53 8.5 53 0 53 C0 35.51 0 18.02 0 0 Z " fill="#AC6AFF" transform="translate(303,223)"/>
<path d="M0 0 C53.13 0 106.26 0 161 0 C161 52.69874477 161 52.69874477 146 70 C142.44424699 74.1235919 138.93203715 78.27212815 135.5 82.5 C131.11054182 87.90362902 126.58317191 93.18038455 122.04296875 98.45703125 C117.78648075 103.40558716 113.57832994 108.3947854 109.36767578 113.38232422 C107.97540583 115.02908979 106.57994527 116.67310067 105.18359375 118.31640625 C100.95146367 123.30026248 96.74262602 128.29559272 92.625 133.375 C88.29139668 138.70927172 83.78974617 143.88925143 79.25244141 149.05029297 C78.71538574 149.66404785 78.17833008 150.27780273 77.625 150.91015625 C77.14289063 151.45808838 76.66078125 152.00602051 76.1640625 152.57055664 C74.90207419 154.01417226 74.90207419 154.01417226 74 156 C118.055 156.495 118.055 156.495 163 157 C163 174.49 163 191.98 163 210 C108.88 210 54.76 210 -1 210 C-1 158 -1 158 10 145 C12.17299379 142.35461626 14.34583042 139.70907832 16.5078125 137.0546875 C20.15281776 132.58698513 23.8215994 128.13896614 27.48876953 123.68945312 C30.5370903 119.99066069 33.58367973 116.29048941 36.625 112.5859375 C42.44570076 105.49962537 48.29508834 98.44330188 54.23901367 91.45996094 C57.5425967 87.56848848 60.73373799 83.59907831 63.90234375 79.59765625 C66.82738914 75.97539334 69.84544186 72.43437502 72.88085938 68.90429688 C76.75404398 64.37307495 80.3251554 59.72480019 84 55 C56.28 54.67 28.56 54.34 0 54 C0 36.18 0 18.36 0 0 Z " fill="#000000" transform="translate(1029,221)"/>
<path d="M0 0 C0 21.12 0 42.24 0 64 C-5.0325 65.629375 -10.065 67.25875 -15.25 68.9375 C-28.21428645 73.22299969 -40.81211842 77.78722866 -53 84 C-53.82209961 84.41717285 -54.64419922 84.8343457 -55.49121094 85.26416016 C-72.87515697 94.20116403 -88.37613257 105.07024238 -103 118 C-103.91652344 118.7940625 -104.83304688 119.588125 -105.77734375 120.40625 C-110.96555987 124.96251799 -115.62720652 129.66223619 -120 135 C-120.43038574 135.51272461 -120.86077148 136.02544922 -121.30419922 136.55371094 C-129.11042268 145.86407973 -135.96293366 155.45370949 -142 166 C-142.44730469 166.78084961 -142.89460938 167.56169922 -143.35546875 168.36621094 C-162.56420647 202.38504685 -169.6365241 237.32002711 -173 276 C-195.77 276 -218.54 276 -242 276 C-242 252.6095679 -242 252.6095679 -240.8125 242.8125 C-240.68012939 241.68448975 -240.54775879 240.55647949 -240.41137695 239.39428711 C-232.37342563 174.62582029 -200.70408681 111.86267162 -148.734375 71.1171875 C-147.83203125 70.41851562 -146.9296875 69.71984375 -146 69 C-144.99453125 68.17757812 -143.9890625 67.35515625 -142.953125 66.5078125 C-106.16307582 36.53155144 -62.30493522 16.31056721 -17 3 C-16.05624512 2.71753418 -15.11249023 2.43506836 -14.14013672 2.14404297 C-13.18510254 1.86834473 -12.23006836 1.59264648 -11.24609375 1.30859375 C-10.38556396 1.05779053 -9.52503418 0.8069873 -8.63842773 0.54858398 C-6 0 -6 0 0 0 Z " fill="#AC6AFF" transform="translate(245,0)"/>
<path d="M0 0 C21.45 0 42.9 0 65 0 C65 69.3 65 138.6 65 210 C43.55 210 22.1 210 0 210 C0 140.7 0 71.4 0 0 Z " fill="#000000" transform="translate(422,221)"/>
<path d="M0 0 C0 20.13 0 40.26 0 61 C-4.62 63.31 -9.24 65.62 -14 68 C-17.15770833 69.92998735 -20.21059043 71.84707791 -23.25 73.9375 C-24.01812012 74.46053711 -24.78624023 74.98357422 -25.57763672 75.52246094 C-41.80405763 86.66545111 -56.813376 99.97466048 -67 117 C-67.34466309 117.57008789 -67.68932617 118.14017578 -68.04443359 118.72753906 C-78.85739218 136.87022062 -82.49943315 154.9920641 -84 176 C-105.12 176 -126.24 176 -148 176 C-144.71595556 136.59146677 -129.57374357 99.21182777 -104 69 C-103.28585938 68.15566406 -102.57171875 67.31132812 -101.8359375 66.44140625 C-99.61103763 63.90402045 -97.32702381 61.44426318 -95 59 C-94.46391113 58.43667969 -93.92782227 57.87335938 -93.37548828 57.29296875 C-72.63525118 35.64701957 -31.692534 0 0 0 Z " fill="#AC6AFF" transform="translate(245,100)"/>
<path d="M0 0 C8.32238254 5.81319979 13.52232737 12.64100252 15.7734375 22.64453125 C16.91153459 32.85256536 15.80013288 41.77900669 9.92578125 50.3359375 C3.75665073 57.84861732 -4.4477387 63.3045758 -14.2265625 64.64453125 C-28.13250255 65.65031802 -40.0092434 64.58279505 -51 55.1171875 C-57.30396814 49.25210321 -60.88381131 42.73522927 -61.46484375 34.10546875 C-61.75239221 23.57320035 -60.79526398 15.62190244 -53.7890625 7.26953125 C-40.07293278 -7.17155247 -17.26033992 -10.50761044 0 0 Z " fill="#000000" transform="translate(477.2265625,135.35546875)"/>
<path d="M0 0 C7.04558987 6.38621058 11.38534555 13.07114557 12.375 22.6171875 C12.72839326 33.59446572 10.88853787 40.90042701 3.8125 49.3125 C-2.927051 56.38569214 -9.8202412 60.02917253 -19.58398438 60.29248047 C-26.85469801 60.36167714 -32.75107551 60.01984922 -39 56 C-39.69480469 55.57589844 -40.38960937 55.15179688 -41.10546875 54.71484375 C-49.00084051 49.39694795 -54.14378623 41.32709066 -56 32 C-57.16814072 22.30875849 -54.8213629 13.69443138 -49.25 5.6875 C-43.15780139 -1.78233146 -35.98874293 -5.47345769 -26.8125 -7.8125 C-16.70379593 -8.30964938 -7.97369597 -6.36532653 0 0 Z " fill="#AC6AFF" transform="translate(267,230)"/>
</svg>
